# xmcd CD database file
#
# Track frame offsets:
#	150
#	13302
#	25521
#	38116
#	50948
#	63655
#	75888
#	88706
#	101091
#	113714
#	126086
#	137762
#	150831
#	163399
#	176343
#	189287
#	201757
#	214129
#	226473
#	238400
#	251079
#	263925
#	277231
#	290412
#	299859
#	311813
#	322890
#	336461
#	347328
#
# Disc length: 4798 seconds
#
# Revision: 0
# Processed by: cddbd v1.5.2PL0 Copyright (c) Steve Scherf et al.
# Submitted via: CDex 1.51
#
DISCID=bc12bc1d
DTITLE=Hank Williams - Not on 40 Greatest Hits And Without Audrey
DYEAR=1900
DGENRE=Country
TTITLE0=101-Calling you
TTITLE1=102-Never Again (Will I Knock on your Door)
TTITLE2=103-Wealth Won't Save your Soul
TTITLE3=104-When God Comes and Gathers His Jewels
TTITLE4=105-I Don't Care (If Tomorrow Never Comes)
TTITLE5=106-My Love For you (Has Turned to Hate)
TTITLE6=108-Pan American
TTITLE7=111-(Last Night) I Heard you Crying In your Sleep
TTITLE8=112-Six More Miles (to the Graveyard)
TTITLE9=113-Fly Trouble
TTITLE10=114-I'm Satisfied With you
TTITLE11=115-On the Banks of the Old Pontchartrain
TTITLE12=116-Rootie Tootie
TTITLE13=117-I Can't Get you Off of my Mind
TTITLE14=118-I'm A Long Gone Daddy
TTITLE15=119-Honky Tonkin'
TTITLE16=120-My Sweet Love Ain't Around
TTITLE17=121-The Blues Come Around
TTITLE18=201-I'll Be A Bachelor 'til I Die
TTITLE19=202-There'll Be No Teardrops Tonight
TTITLE20=207-May you Never Be Alone
TTITLE21=215-I've Just Told Mama Goodbye
TTITLE22=217-A House Without Love
TTITLE23=219-My Bucket's Got A Hole In it (Alternate Take)
TTITLE24=223-Why Should We Try Anymore
TTITLE25=317-My Heart Would Know
TTITLE26=401-I'd Still Want you
TTITLE27=409-Let's Turn Back the Years
TTITLE28=418-I Could Never Be Ashamed of you
EXTD=
EXTT0=
EXTT1=
EXTT2=
EXTT3=
EXTT4=
EXTT5=
EXTT6=
EXTT7=
EXTT8=
EXTT9=
EXTT10=
EXTT11=
EXTT12=
EXTT13=
EXTT14=
EXTT15=
EXTT16=
EXTT17=
EXTT18=
EXTT19=
EXTT20=
EXTT21=
EXTT22=
EXTT23=
EXTT24=
EXTT25=
EXTT26=
EXTT27=
EXTT28=
PLAYORDER=
